<svg preserveAspectRatio="none" width="100%" height="100%" overflow="visible" style="display: block;" viewBox="0 0 35 28" fill="none" xmlns="http://www.w3.org/2000/svg">
<g id="Group">
<path id="Vector" d="M33.2282 15.0772L20.8826 0.243907L21.9345 -1.26818e-05L34.2802 14.8334L33.2282 15.0772Z" fill="var(--fill-0, white)"/>
<path id="Vector_2" d="M22.2196 25.288L9.87404 10.4547C12.4222 7.03083 16.6008 3.53761 19.0099 1.65527C20.1402 0.772216 20.8442 0.26999 20.8814 0.24335L33.227 15.0767C33.19 15.1031 32.4858 15.6054 31.3556 16.4886C28.9463 18.3708 24.7677 21.8644 22.2196 25.288Z" fill="url(#paint0_linear_2_366)"/>
<g id="Group_2">
<path id="Vector_3" d="M25.3171 9.21855C25.5287 9.05343 25.7251 8.90168 25.9052 8.76365C26.2461 8.46443 26.0482 8.24355 25.8923 8.21938C25.8425 8.21174 25.7085 8.20691 25.5432 8.3292C25.3631 8.46713 25.1667 8.6191 24.9552 8.78433C22.9474 10.3528 19.7109 13.0402 17.2131 15.874C17.0011 16.1673 17.2467 16.4349 17.4382 16.3923C17.5002 16.3787 17.5418 16.3398 17.5754 16.3085C20.073 13.4748 23.3095 10.7874 25.3171 9.21855Z" fill="var(--fill-0, #414345)"/>
<path id="Vector_4" d="M22.583 5.93696C22.7944 5.77161 22.9911 5.61986 23.1711 5.48183C23.5119 5.18261 23.3139 4.96195 23.1578 4.93756C23.1082 4.92992 22.9743 4.92509 22.8089 5.04749C22.6288 5.18542 22.4322 5.33727 22.2208 5.50251C20.2131 7.07113 16.9766 9.75874 14.4789 12.5924C14.2669 12.8856 14.5125 13.1533 14.7038 13.1107C14.7657 13.0968 14.8076 13.0579 14.8411 13.0267C17.3387 10.1931 20.5754 7.50557 22.583 5.93696Z" fill="var(--fill-0, #414345)"/>
<path id="Vector_5" d="M21.2122 4.296C21.4238 4.13065 21.6202 3.9789 21.8003 3.84098C22.1411 3.54165 21.9432 3.32099 21.7872 3.29672C21.7373 3.28896 21.6033 3.28413 21.4382 3.40642C21.258 3.54434 21.0614 3.69632 20.85 3.86155C18.8424 5.43017 15.6057 8.11766 13.1083 10.9514C12.8961 11.2446 13.1417 11.5122 13.3331 11.4696C13.3951 11.4558 13.4367 11.4169 13.4703 11.3857C15.968 8.552 19.2045 5.86461 21.2122 4.296Z" fill="var(--fill-0, #414345)"/>
<path id="Vector_6" d="M23.9465 7.5778C24.158 7.41256 24.3544 7.26082 24.5345 7.12278C24.8753 6.82345 24.6775 6.6028 24.5215 6.57852C24.4716 6.57076 24.3377 6.56604 24.1723 6.68834C23.9924 6.82637 23.7957 6.97812 23.5845 7.14336C21.5766 8.71197 18.3402 11.3994 15.8424 14.2331C15.6304 14.5265 15.876 14.7941 16.0672 14.7514C16.1294 14.7377 16.1711 14.6988 16.2047 14.6675C18.7021 11.8338 21.9388 9.14642 23.9465 7.5778Z" fill="var(--fill-0, #414345)"/>
<path id="Vector_7" d="M29.422 14.139C29.6333 13.9738 29.8299 13.8219 30.0101 13.684C30.3508 13.3851 30.1533 13.1644 29.9975 13.1403C29.9476 13.1327 29.8137 13.1278 29.6485 13.2502C29.4684 13.3882 29.2719 13.54 29.0604 13.7051C27.0526 15.2738 23.8161 17.9612 21.3184 20.7951C21.1059 21.0889 21.3515 21.356 21.543 21.3129C21.6048 21.299 21.6464 21.2601 21.6802 21.229C24.1775 18.3951 27.4143 15.7076 29.422 14.139Z" fill="var(--fill-0, #414345)"/>
<path id="Vector_8" d="M26.6845 10.8577C26.8958 10.6924 27.0923 10.5406 27.2725 10.4027C27.6132 10.1034 27.4154 9.88272 27.2593 9.85855C27.2094 9.85079 27.0756 9.84607 26.9103 9.96826C26.7302 10.1062 26.5338 10.258 26.3222 10.4234C24.3144 11.992 21.0779 14.6795 18.5803 17.5132C18.3682 17.8064 18.614 18.0739 18.8051 18.0314C18.8672 18.0176 18.9089 17.9788 18.9426 17.9476C21.44 15.1139 24.6766 12.4263 26.6845 10.8577Z" fill="var(--fill-0, #414345)"/>
<path id="Vector_9" d="M28.0515 12.5004C28.2628 12.3352 28.4594 12.1834 28.6394 12.0455C28.9803 11.7462 28.7823 11.5255 28.6263 11.5012C28.5765 11.4935 28.4426 11.4888 28.2774 11.6111C28.0973 11.749 27.9008 11.9008 27.6894 12.0661C25.6816 13.6347 22.4451 16.3221 19.9474 19.1558C19.7354 19.4491 19.9811 19.7167 20.1724 19.6741C20.2343 19.6602 20.2763 19.6215 20.3097 19.5904C22.8073 16.7565 26.0438 14.0689 28.0515 12.5004Z" fill="var(--fill-0, #414345)"/>
</g>
<path id="Vector_10" d="M13.5874 26.8592L1.24182 12.0257C1.55262 11.8632 7.45502 8.77236 9.87623 10.4541L22.2218 25.2874C19.8005 23.6059 13.898 26.6965 13.5874 26.8592Z" fill="url(#paint1_linear_2_366)"/>
<g id="Group_3">
<path id="Vector_11" d="M14.2377 15.9996C14.2502 16.0015 14.2671 16.0036 14.2795 16.0056C14.284 15.8714 13.9532 15.5891 13.8633 15.5506C11.8662 14.746 8.38793 16.117 6.68667 16.8981C6.54819 17.0298 6.89103 17.3614 7.03198 17.3542C7.04086 17.3536 7.05221 17.3492 7.06098 17.3473C8.76224 16.566 12.2404 15.195 14.2377 15.9996Z" fill="var(--fill-0, #414345)"/>
<path id="Vector_12" d="M15.6514 17.6943C15.6639 17.696 15.6806 17.6984 15.6932 17.7003C15.6976 17.5662 15.3668 17.2838 15.277 17.2453C13.2797 16.4406 9.80159 17.8116 8.10033 18.5928C7.96185 18.7244 8.30457 19.0559 8.44564 19.0487C8.45452 19.0484 8.46576 19.0439 8.47453 19.0418C10.1758 18.2607 13.6543 16.8896 15.6514 17.6943Z" fill="var(--fill-0, #414345)"/>
<path id="Vector_13" d="M11.4105 12.6086C11.423 12.6104 11.4397 12.6126 11.4524 12.6146C11.4567 12.4803 11.1262 12.1981 11.0362 12.1597C9.03896 11.3551 5.5608 12.726 3.85932 13.5071C3.72095 13.6386 4.06379 13.9702 4.20486 13.9631C4.21374 13.9625 4.22509 13.9582 4.23375 13.956C5.93489 13.1749 9.41327 11.804 11.4105 12.6086Z" fill="var(--fill-0, #414345)"/>
<path id="Vector_14" d="M12.824 14.3049C12.8366 14.3066 12.8535 14.3092 12.866 14.3108C12.8704 14.1768 12.5397 13.8946 12.4498 13.856C10.4526 13.0515 6.97423 14.4224 5.27298 15.2035C5.1346 15.335 5.47744 15.6666 5.6184 15.6593C5.62739 15.659 5.63863 15.6547 5.64728 15.6524C7.34865 14.8714 10.8268 13.5003 12.824 14.3049Z" fill="var(--fill-0, #414345)"/>
<path id="Vector_15" d="M17.0649 19.3905C17.0775 19.3924 17.0943 19.3945 17.1069 19.3964C17.1113 19.2624 16.7805 18.9801 16.6907 18.9416C14.6936 18.1369 11.2152 19.5079 9.51394 20.2892C9.37557 20.4207 9.71819 20.7523 9.85937 20.7451C9.86813 20.7445 9.8796 20.7402 9.88825 20.7382C11.5895 19.9568 15.0679 18.5859 17.0649 19.3905Z" fill="var(--fill-0, #414345)"/>
<path id="Vector_16" d="M19.8919 22.7809C19.9044 22.7827 19.9212 22.7851 19.9339 22.787C19.9391 22.6534 19.6082 22.3712 19.518 22.3325C17.5209 21.528 14.0428 22.8989 12.3414 23.6801C12.2027 23.8119 12.5453 24.1428 12.6862 24.1355C12.6952 24.1348 12.7066 24.1306 12.7151 24.1284C14.4164 23.3472 17.8947 21.9763 19.8919 22.7809Z" fill="var(--fill-0, #414345)"/>
<path id="Vector_17" d="M18.4785 21.0852C18.4911 21.087 18.508 21.0892 18.5206 21.091C18.5249 20.9569 18.1943 20.6746 18.1043 20.6362C16.1071 19.8315 12.629 21.2025 10.9276 21.9836C10.7892 22.1153 11.1319 22.447 11.2729 22.4397C11.2819 22.4392 11.2932 22.4347 11.3018 22.4328C13.0033 21.6514 16.4814 20.2806 18.4785 21.0852Z" fill="var(--fill-0, #414345)"/>
</g>
<path id="Vector_18" d="M13.5881 26.8594C13.8988 26.6967 19.8012 23.6062 22.2225 25.2877C24.7706 21.864 28.9492 18.3705 31.3585 16.4883C32.4888 15.6053 33.1929 15.1029 33.2299 15.0764L34.2819 14.8326L32.8773 16.1607L22.2449 26.2132L22.1216 26.3303L12.347 28.0033L13.5881 26.8594Z" fill="var(--fill-0, #A7A8B5)"/>
<path id="Vector_19" d="M12.3455 28.0024L-4.64365e-05 13.1689L1.24079 12.025L13.5864 26.8584L12.3455 28.0024Z" fill="var(--fill-0, white)"/>
<path id="Vector_20" d="M18.3528 17.9176C16.2388 14.598 14.0571 11.1727 10.7112 9.35872C10.5328 9.57577 10.2107 9.96919 10.0458 10.1802C13.2543 11.8425 15.401 15.2105 17.4794 18.474C19.7665 22.0655 22.1318 25.7792 25.907 27.0221L25.6306 26.3595L26.2308 26.0384C22.8067 24.911 20.6432 21.5141 18.3528 17.9176Z" fill="url(#paint2_linear_2_366)"/>
</g>
<defs>
<linearGradient id="paint0_linear_2_366" x1="17.4557" y1="17.1286" x2="27.0532" y2="6.66815" gradientUnits="userSpaceOnUse">
<stop stop-color="#D7D8DB"/>
<stop offset="0.2586" stop-color="#E4E5E8"/>
<stop offset="0.6692" stop-color="#F4F5F7"/>
<stop offset="1" stop-color="#F9FAFC"/>
</linearGradient>
<linearGradient id="paint1_linear_2_366" x1="17.8665" y1="13.3951" x2="5.71696" y2="23.8151" gradientUnits="userSpaceOnUse">
<stop stop-color="#D7D8DB"/>
<stop offset="0.2586" stop-color="#E4E5E8"/>
<stop offset="0.6692" stop-color="#F4F5F7"/>
<stop offset="1" stop-color="#F9FAFC"/>
</linearGradient>
<linearGradient id="paint2_linear_2_366" x1="25.2782" y1="26.9387" x2="10.3987" y2="8.53803" gradientUnits="userSpaceOnUse">
<stop offset="0.0054" stop-color="#FFC800"/>
<stop offset="1" stop-color="#FF9900"/>
</linearGradient>
</defs>
</svg>
